<mxfile host="app.diagrams.net" modified="2022-10-31T13:38:49.226Z" agent="5.0 (Macintosh)" etag="uU-aJ-Bd1zgHt3nGHhj4" version="20.3.6" type="github">
  <diagram id="VH1F5OAhr3PDcNdF8FNw" name="Page-1">
    <mxGraphModel dx="1306" dy="871" grid="1" gridSize="10" guides="1" tooltips="1" connect="1" arrows="1" fold="1" page="1" pageScale="1" pageWidth="827" pageHeight="1169" math="0" shadow="0">
      <root>
        <mxCell id="0" />
        <mxCell id="1" parent="0" />
        <mxCell id="jsrNFwG7S7SJnDHRJv-S-1" value="" style="whiteSpace=wrap;html=1;aspect=fixed;" vertex="1" parent="1">
          <mxGeometry x="370" y="410" width="80" height="80" as="geometry" />
        </mxCell>
      </root>
    </mxGraphModel>
  </diagram>
</mxfile>
